<svg xmlns="http://www.w3.org/2000/svg"
     xmlns:xlink="http://www.w3.org/1999/xlink"
     width="256"
     zoomAndPan="magnify"
     viewBox="0 0 810 809.999993"
     height="256"
     preserveAspectRatio="xMidYMid meet"
     version="1.0">
	<defs>
		<clipPath id="2ce519eb3f">
			<path d="M 218.679688 398.351562 L 305.289062 398.351562 L 305.289062 484.957031 L 218.679688 484.957031 Z M 218.679688 398.351562 "
			      clip-rule="nonzero"/>
		</clipPath>
		<clipPath id="6c77ab557a">
			<path d="M 261.984375 398.351562 C 238.066406 398.351562 218.679688 417.738281 218.679688 441.65625 C 218.679688 465.570312 238.066406 484.957031 261.984375 484.957031 C 285.902344 484.957031 305.289062 465.570312 305.289062 441.65625 C 305.289062 417.738281 285.902344 398.351562 261.984375 398.351562 Z M 261.984375 398.351562 "
			      clip-rule="nonzero"/>
		</clipPath>
		<clipPath id="a827174c6d">
			<path d="M 550.75 398.351562 L 637.359375 398.351562 L 637.359375 484.957031 L 550.75 484.957031 Z M 550.75 398.351562 "
			      clip-rule="nonzero"/>
		</clipPath>
		<clipPath id="8d4944b016">
			<path d="M 594.054688 398.351562 C 570.136719 398.351562 550.75 417.738281 550.75 441.65625 C 550.75 465.570312 570.136719 484.957031 594.054688 484.957031 C 617.96875 484.957031 637.359375 465.570312 637.359375 441.65625 C 637.359375 417.738281 617.96875 398.351562 594.054688 398.351562 Z M 594.054688 398.351562 "
			      clip-rule="nonzero"/>
		</clipPath>
		<clipPath id="060c2db62e">
			<path d="M 175.414062 355.085938 L 348.546875 355.085938 L 348.546875 528.21875 L 175.414062 528.21875 Z M 175.414062 355.085938 "
			      clip-rule="nonzero"/>
		</clipPath>
		<clipPath id="fa330504ba">
			<path d="M 261.980469 355.085938 C 214.171875 355.085938 175.414062 393.84375 175.414062 441.652344 C 175.414062 489.460938 214.171875 528.21875 261.980469 528.21875 C 309.792969 528.21875 348.546875 489.460938 348.546875 441.652344 C 348.546875 393.84375 309.792969 355.085938 261.980469 355.085938 Z M 261.980469 355.085938 "
			      clip-rule="nonzero"/>
		</clipPath>
		<clipPath id="3fe330078b">
			<path d="M 507.484375 355.085938 L 680.617188 355.085938 L 680.617188 528.21875 L 507.484375 528.21875 Z M 507.484375 355.085938 "
			      clip-rule="nonzero"/>
		</clipPath>
		<clipPath id="b99df1ebf8">
			<path d="M 594.050781 355.085938 C 546.242188 355.085938 507.484375 393.84375 507.484375 441.652344 C 507.484375 489.460938 546.242188 528.21875 594.050781 528.21875 C 641.859375 528.21875 680.617188 489.460938 680.617188 441.652344 C 680.617188 393.84375 641.859375 355.085938 594.050781 355.085938 Z M 594.050781 355.085938 "
			      clip-rule="nonzero"/>
		</clipPath>
		<clipPath id="d81418dacc">
			<path d="M 80 67 L 193 67 L 193 132 L 80 132 Z M 80 67 "
			      clip-rule="nonzero"/>
		</clipPath>
		<clipPath id="de0ca10a6b">
			<path d="M 77.4375 99.027344 L 183.710938 63.625 L 195.652344 99.46875 L 89.378906 134.871094 Z M 77.4375 99.027344 "
			      clip-rule="nonzero"/>
		</clipPath>
		<clipPath id="3caa7697bb">
			<path d="M 89.535156 94.996094 L 171.496094 67.695312 C 174.703125 66.625 178.203125 66.875 181.226562 68.386719 C 184.253906 69.902344 186.550781 72.554688 187.621094 75.761719 L 191.503906 87.414062 C 192.570312 90.621094 192.320312 94.121094 190.808594 97.144531 C 189.296875 100.171875 186.644531 102.46875 183.4375 103.539062 L 101.476562 130.84375 C 98.269531 131.910156 94.765625 131.660156 91.742188 130.148438 C 88.71875 128.636719 86.417969 125.984375 85.351562 122.773438 L 81.46875 111.125 C 80.398438 107.914062 80.648438 104.414062 82.164062 101.390625 C 83.675781 98.367188 86.328125 96.066406 89.535156 94.996094 Z M 89.535156 94.996094 "
			      clip-rule="nonzero"/>
		</clipPath>
		<clipPath id="d3558f9dc9">
			<path d="M 215 33 L 333 33 L 333 116 L 215 116 Z M 215 33 "
			      clip-rule="nonzero"/>
		</clipPath>
		<clipPath id="dd95a1c9cf">
			<path d="M 211.617188 75.589844 L 318.246094 29.875 L 336.941406 73.480469 L 230.3125 119.199219 Z M 211.617188 75.589844 "
			      clip-rule="nonzero"/>
		</clipPath>
		<clipPath id="f3ac08e7e7">
			<path d="M 223.335938 70.566406 L 306.371094 34.96875 C 309.480469 33.636719 312.988281 33.59375 316.128906 34.847656 C 319.269531 36.101562 321.78125 38.554688 323.113281 41.660156 L 331.761719 61.832031 C 333.09375 64.9375 333.136719 68.449219 331.882812 71.589844 C 330.625 74.726562 328.175781 77.242188 325.066406 78.574219 L 242.03125 114.171875 C 238.921875 115.507812 235.414062 115.550781 232.273438 114.292969 C 229.132812 113.039062 226.621094 110.585938 225.289062 107.480469 L 216.640625 87.308594 C 215.308594 84.203125 215.265625 80.691406 216.519531 77.550781 C 217.777344 74.414062 220.226562 71.898438 223.335938 70.566406 Z M 223.335938 70.566406 "
			      clip-rule="nonzero"/>
		</clipPath>
		<clipPath id="0c4958fbf4">
			<path d="M 182 81 L 300 81 L 300 159 L 182 159 Z M 182 81 "
			      clip-rule="nonzero"/>
		</clipPath>
		<clipPath id="f87e418817">
			<path d="M 178.441406 117.71875 L 287.503906 78.148438 L 303.683594 122.746094 L 194.625 162.316406 Z M 178.441406 117.71875 "
			      clip-rule="nonzero"/>
		</clipPath>
		<clipPath id="37349917a7">
			<path d="M 190.429688 113.371094 L 275.355469 82.554688 C 278.535156 81.402344 282.042969 81.558594 285.105469 82.992188 C 288.167969 84.421875 290.539062 87.011719 291.691406 90.191406 L 299.175781 110.820312 C 300.328125 114 300.171875 117.503906 298.742188 120.570312 C 297.308594 123.632812 294.71875 126 291.539062 127.15625 L 206.609375 157.96875 C 203.433594 159.121094 199.925781 158.964844 196.863281 157.535156 C 193.800781 156.101562 191.429688 153.511719 190.277344 150.332031 L 182.792969 129.703125 C 181.640625 126.527344 181.796875 123.019531 183.226562 119.957031 C 184.660156 116.890625 187.25 114.523438 190.429688 113.371094 Z M 190.429688 113.371094 "
			      clip-rule="nonzero"/>
		</clipPath>
		<clipPath id="174d66fd42">
			<path d="M 160 64 L 306 64 L 306 359 L 160 359 Z M 160 64 "
			      clip-rule="nonzero"/>
		</clipPath>
		<clipPath id="0bc796f4f3">
			<path d="M 191.808594 60.269531 L 309.519531 347.765625 L 274.554688 362.078125 L 156.84375 74.582031 Z M 191.808594 60.269531 "
			      clip-rule="nonzero"/>
		</clipPath>
		<clipPath id="d56a621c98">
			<path d="M 196.640625 72.066406 L 304.644531 335.867188 C 305.925781 338.996094 305.914062 342.503906 304.605469 345.625 C 303.300781 348.742188 300.808594 351.214844 297.679688 352.496094 L 286.3125 357.148438 C 283.183594 358.429688 279.671875 358.417969 276.554688 357.109375 C 273.433594 355.800781 270.964844 353.308594 269.683594 350.179688 L 161.675781 86.382812 C 160.394531 83.253906 160.410156 79.742188 161.714844 76.625 C 163.023438 73.503906 165.515625 71.035156 168.644531 69.753906 L 180.007812 65.097656 C 183.136719 63.816406 186.648438 63.832031 189.765625 65.140625 C 192.886719 66.445312 195.359375 68.9375 196.640625 72.066406 Z M 196.640625 72.066406 "
			      clip-rule="nonzero"/>
		</clipPath>
		<clipPath id="59caa1bd9b">
			<path d="M 326.792969 355.085938 L 533.722656 355.085938 L 533.722656 476.585938 L 326.792969 476.585938 Z M 326.792969 355.085938 "
			      clip-rule="nonzero"/>
		</clipPath>
		<clipPath id="03a74e1cc9">
			<path d="M 339.542969 355.085938 L 520.691406 355.085938 C 524.074219 355.085938 527.316406 356.429688 529.707031 358.820312 C 532.097656 361.210938 533.441406 364.453125 533.441406 367.835938 L 533.441406 463.835938 C 533.441406 467.21875 532.097656 470.460938 529.707031 472.851562 C 527.316406 475.242188 524.074219 476.585938 520.691406 476.585938 L 339.542969 476.585938 C 336.160156 476.585938 332.917969 475.242188 330.527344 472.851562 C 328.136719 470.460938 326.792969 467.21875 326.792969 463.835938 L 326.792969 367.835938 C 326.792969 364.453125 328.136719 361.210938 330.527344 358.820312 C 332.917969 356.429688 336.160156 355.085938 339.542969 355.085938 Z M 339.542969 355.085938 "
			      clip-rule="nonzero"/>
		</clipPath>
		<clipPath id="6eff34f6e5">
			<path d="M 257 311 L 331 311 L 331 385 L 257 385 Z M 257 311 "
			      clip-rule="nonzero"/>
		</clipPath>
		<clipPath id="9f10f5552d">
			<path d="M 312 308.070312 L 334.636719 365.617188 L 275.964844 388.699219 L 253.328125 331.152344 Z M 312 308.070312 "
			      clip-rule="nonzero"/>
		</clipPath>
		<clipPath id="5c90662443">
			<path d="M 316.667969 319.9375 L 329.972656 353.753906 C 331.207031 356.902344 331.144531 360.410156 329.796875 363.511719 C 328.445312 366.609375 325.921875 369.046875 322.773438 370.285156 L 287.925781 383.992188 C 284.78125 385.230469 281.269531 385.167969 278.171875 383.820312 C 275.070312 382.46875 272.632812 379.941406 271.394531 376.796875 L 258.09375 342.976562 C 256.855469 339.832031 256.917969 336.320312 258.265625 333.222656 C 259.617188 330.121094 262.144531 327.683594 265.289062 326.445312 L 300.136719 312.738281 C 303.28125 311.5 306.792969 311.5625 309.890625 312.914062 C 312.992188 314.261719 315.429688 316.789062 316.667969 319.9375 Z M 316.667969 319.9375 "
			      clip-rule="nonzero"/>
		</clipPath>
		<clipPath id="4d7b00d740">
			<path d="M 267 313 L 354 313 L 354 400 L 267 400 Z M 267 313 "
			      clip-rule="nonzero"/>
		</clipPath>
		<clipPath id="070ea546a5">
			<path d="M 262.695312 349.632812 L 306.539062 308.070312 L 359.140625 363.558594 L 315.296875 405.121094 Z M 262.695312 349.632812 "
			      clip-rule="nonzero"/>
		</clipPath>
		<clipPath id="df14403ad5">
			<path d="M 271.945312 340.863281 L 297.285156 316.84375 C 299.738281 314.515625 303.015625 313.257812 306.394531 313.351562 C 309.777344 313.441406 312.984375 314.871094 315.308594 317.324219 L 350.25 354.183594 C 352.578125 356.636719 353.832031 359.914062 353.742188 363.292969 C 353.652344 366.675781 352.222656 369.882812 349.769531 372.207031 L 324.433594 396.226562 C 321.980469 398.554688 318.699219 399.808594 315.320312 399.71875 C 311.941406 399.628906 308.734375 398.199219 306.40625 395.746094 L 271.464844 358.886719 C 269.140625 356.433594 267.882812 353.15625 267.972656 349.773438 C 268.0625 346.394531 269.492188 343.1875 271.945312 340.863281 Z M 271.945312 340.863281 "
			      clip-rule="nonzero"/>
		</clipPath>
		<clipPath id="a331a7e51b">
			<path d="M 376.03125 337.601562 L 561.738281 337.601562 L 561.738281 377.351562 L 376.03125 377.351562 Z M 376.03125 337.601562 "
			      clip-rule="nonzero"/>
		</clipPath>
		<clipPath id="b1292679cb">
			<path d="M 388.78125 337.601562 L 548.960938 337.601562 C 552.339844 337.601562 555.582031 338.945312 557.976562 341.335938 C 560.367188 343.726562 561.710938 346.96875 561.710938 350.351562 L 561.710938 364.601562 C 561.710938 367.980469 560.367188 371.226562 557.976562 373.617188 C 555.582031 376.007812 552.339844 377.351562 548.960938 377.351562 L 388.78125 377.351562 C 385.398438 377.351562 382.15625 376.007812 379.765625 373.617188 C 377.375 371.226562 376.03125 367.980469 376.03125 364.601562 L 376.03125 350.351562 C 376.03125 346.96875 377.375 343.726562 379.765625 341.335938 C 382.15625 338.945312 385.398438 337.601562 388.78125 337.601562 Z M 388.78125 337.601562 "
			      clip-rule="nonzero"/>
		</clipPath>
		<clipPath id="423aeca5ee">
			<path d="M 357.417969 337.601562 L 425.628906 337.601562 L 425.628906 395.230469 L 357.417969 395.230469 Z M 357.417969 337.601562 "
			      clip-rule="nonzero"/>
		</clipPath>
		<clipPath id="aea1afcb8b">
			<path d="M 391.46875 337.601562 C 372.664062 337.601562 357.417969 350.5 357.417969 366.414062 C 357.417969 382.328125 372.664062 395.230469 391.46875 395.230469 C 410.273438 395.230469 425.519531 382.328125 425.519531 366.414062 C 425.519531 350.5 410.273438 337.601562 391.46875 337.601562 Z M 391.46875 337.601562 "
			      clip-rule="nonzero"/>
		</clipPath>
		<clipPath id="ff4363c3c8">
			<path d="M 513.089844 337.703125 L 581.300781 337.703125 L 581.300781 395.332031 L 513.089844 395.332031 Z M 513.089844 337.703125 "
			      clip-rule="nonzero"/>
		</clipPath>
		<clipPath id="0a0651183d">
			<path d="M 547.140625 337.703125 C 528.335938 337.703125 513.089844 350.601562 513.089844 366.515625 C 513.089844 382.429688 528.335938 395.332031 547.140625 395.332031 C 565.949219 395.332031 581.191406 382.429688 581.191406 366.515625 C 581.191406 350.601562 565.949219 337.703125 547.140625 337.703125 Z M 547.140625 337.703125 "
			      clip-rule="nonzero"/>
		</clipPath>
	</defs>
	<path stroke-linecap="round"
	      transform="matrix(0.749997, -0.00194973, 0.00194973, 0.749997, 288.74331, 552.298408)"
	      fill="none"
	      stroke-linejoin="miter"
	      d="M 17.75527 17.455632 C 107.730928 87.043945 197.710476 87.017443 287.688693 17.38132 "
	      stroke="#019dc6"
	      stroke-width="35"
	      stroke-opacity="1"
	      stroke-miterlimit="4"/>
	<path stroke-linecap="round"
	      transform="matrix(0.749998, 0.00183329, -0.00183329, 0.749998, 242.256817, 579.104703)"
	      fill="none"
	      stroke-linejoin="miter"
	      d="M 17.773489 17.567004 C 150.710988 130.330936 283.643626 130.30808 416.581807 17.493202 "
	      stroke="#2eb5ae"
	      stroke-width="35"
	      stroke-opacity="1"
	      stroke-miterlimit="4"/>
	<path stroke-linecap="round"
	      transform="matrix(0.749996, 0.00228894, -0.00228894, 0.749996, 200.748245, 620.427517)"
	      fill="none"
	      stroke-linejoin="miter"
	      d="M 17.780142 17.61538 C 187.657438 168.285134 357.538371 168.261462 527.422925 17.539156 "
	      stroke="#76b855"
	      stroke-width="35"
	      stroke-opacity="1"
	      stroke-miterlimit="4"/>
	<path stroke-linecap="butt"
	      transform="matrix(0.75, 0, 0, 0.75, 19.32391, 749.63091)"
	      fill="none"
	      stroke-linejoin="miter"
	      d="M 29.500413 29.502538 L 998.969212 29.502538 "
	      stroke="#f7b207"
	      stroke-width="59"
	      stroke-opacity="1"
	      stroke-miterlimit="4"/>
	<path stroke-linecap="butt"
	      transform="matrix(0.75, 0, 0, 0.75, 19.32391, 514.578042)"
	      fill="none"
	      stroke-linejoin="miter"
	      d="M 29.500413 29.502538 L 998.969212 29.502538 "
	      stroke="#0060c0"
	      stroke-width="25"
	      stroke-opacity="1"
	      stroke-miterlimit="4"/>
	<g clip-path="url(#2ce519eb3f)">
		<g clip-path="url(#6c77ab557a)">
			<path fill="#0060c0"
			      d="M 218.679688 398.351562 L 305.289062 398.351562 L 305.289062 484.957031 L 218.679688 484.957031 Z M 218.679688 398.351562 "
			      fill-opacity="1"
			      fill-rule="nonzero"/>
		</g>
	</g>
	<g clip-path="url(#a827174c6d)">
		<g clip-path="url(#8d4944b016)">
			<path fill="#0060c0"
			      d="M 550.75 398.351562 L 637.359375 398.351562 L 637.359375 484.957031 L 550.75 484.957031 Z M 550.75 398.351562 "
			      fill-opacity="1"
			      fill-rule="nonzero"/>
		</g>
	</g>
	<g clip-path="url(#060c2db62e)">
		<g clip-path="url(#fa330504ba)">
			<path stroke-linecap="butt"
			      transform="matrix(0.75, 0, 0, 0.75, 175.415942, 355.085921)"
			      fill="none"
			      stroke-linejoin="miter"
			      d="M 115.419382 0.0000226185 C 51.674583 0.0000226185 -0.00250583 51.677112 -0.00250583 115.421911 C -0.00250583 179.16671 51.674583 230.843799 115.419382 230.843799 C 179.16939 230.843799 230.841271 179.16671 230.841271 115.421911 C 230.841271 51.677112 179.16939 0.0000226185 115.419382 0.0000226185 Z M 115.419382 0.0000226185 "
			      stroke="#0060c0"
			      stroke-width="70"
			      stroke-opacity="1"
			      stroke-miterlimit="4"/>
		</g>
	</g>
	<g clip-path="url(#3fe330078b)">
		<g clip-path="url(#b99df1ebf8)">
			<path stroke-linecap="butt"
			      transform="matrix(0.75, 0, 0, 0.75, 507.485258, 355.085921)"
			      fill="none"
			      stroke-linejoin="miter"
			      d="M 115.420711 0.0000226185 C 51.675912 0.0000226185 -0.00117729 51.677112 -0.00117729 115.421911 C -0.00117729 179.16671 51.675912 230.843799 115.420711 230.843799 C 179.16551 230.843799 230.842599 179.16671 230.842599 115.421911 C 230.842599 51.677112 179.16551 0.0000226185 115.420711 0.0000226185 Z M 115.420711 0.0000226185 "
			      stroke="#0060c0"
			      stroke-width="70"
			      stroke-opacity="1"
			      stroke-miterlimit="4"/>
		</g>
	</g>
	<g clip-path="url(#d81418dacc)">
		<g clip-path="url(#de0ca10a6b)">
			<g clip-path="url(#3caa7697bb)">
				<path fill="#0060c0"
				      d="M 77.4375 99.027344 L 183.570312 63.671875 L 195.511719 99.515625 L 89.378906 134.871094 Z M 77.4375 99.027344 "
				      fill-opacity="1"
				      fill-rule="nonzero"/>
			</g>
		</g>
	</g>
	<g clip-path="url(#d3558f9dc9)">
		<g clip-path="url(#dd95a1c9cf)">
			<g clip-path="url(#f3ac08e7e7)">
				<path fill="#0060c0"
				      d="M 211.617188 75.589844 L 318.078125 29.949219 L 336.773438 73.554688 L 230.3125 119.199219 Z M 211.617188 75.589844 "
				      fill-opacity="1"
				      fill-rule="nonzero"/>
			</g>
		</g>
	</g>
	<g clip-path="url(#0c4958fbf4)">
		<g clip-path="url(#f87e418817)">
			<g clip-path="url(#37349917a7)">
				<path fill="#0060c0"
				      d="M 178.441406 117.71875 L 287.328125 78.210938 L 303.511719 122.8125 L 194.625 162.316406 Z M 178.441406 117.71875 "
				      fill-opacity="1"
				      fill-rule="nonzero"/>
			</g>
		</g>
	</g>
	<g clip-path="url(#174d66fd42)">
		<g clip-path="url(#0bc796f4f3)">
			<g clip-path="url(#d56a621c98)">
				<path fill="#0060c0"
				      d="M 191.808594 60.269531 L 309.460938 347.628906 L 274.496094 361.941406 L 156.84375 74.582031 Z M 191.808594 60.269531 "
				      fill-opacity="1"
				      fill-rule="nonzero"/>
			</g>
		</g>
	</g>
	<g clip-path="url(#59caa1bd9b)">
		<g clip-path="url(#03a74e1cc9)">
			<path fill="#0060c0"
			      d="M 326.792969 355.085938 L 533.246094 355.085938 L 533.246094 476.585938 L 326.792969 476.585938 Z M 326.792969 355.085938 "
			      fill-opacity="1"
			      fill-rule="nonzero"/>
		</g>
	</g>
	<g clip-path="url(#6eff34f6e5)">
		<g clip-path="url(#9f10f5552d)">
			<g clip-path="url(#5c90662443)">
				<path fill="#0060c0"
				      d="M 312 308.070312 L 334.636719 365.617188 L 275.964844 388.699219 L 253.328125 331.152344 Z M 312 308.070312 "
				      fill-opacity="1"
				      fill-rule="nonzero"/>
			</g>
		</g>
	</g>
	<g clip-path="url(#4d7b00d740)">
		<g clip-path="url(#070ea546a5)">
			<g clip-path="url(#df14403ad5)">
				<path fill="#0060c0"
				      d="M 262.695312 349.632812 L 306.539062 308.070312 L 358.976562 363.386719 L 315.136719 404.953125 Z M 262.695312 349.632812 "
				      fill-opacity="1"
				      fill-rule="nonzero"/>
			</g>
		</g>
	</g>
	<g clip-path="url(#a331a7e51b)">
		<g clip-path="url(#b1292679cb)">
			<path fill="#0060c0"
			      d="M 376.03125 337.601562 L 561.738281 337.601562 L 561.738281 377.351562 L 376.03125 377.351562 Z M 376.03125 337.601562 "
			      fill-opacity="1"
			      fill-rule="nonzero"/>
		</g>
	</g>
	<g clip-path="url(#423aeca5ee)">
		<g clip-path="url(#aea1afcb8b)">
			<path fill="#0060c0"
			      d="M 357.417969 337.601562 L 425.628906 337.601562 L 425.628906 395.230469 L 357.417969 395.230469 Z M 357.417969 337.601562 "
			      fill-opacity="1"
			      fill-rule="nonzero"/>
		</g>
	</g>
	<g clip-path="url(#ff4363c3c8)">
		<g clip-path="url(#0a0651183d)">
			<path fill="#0060c0"
			      d="M 513.089844 337.703125 L 581.300781 337.703125 L 581.300781 395.332031 L 513.089844 395.332031 Z M 513.089844 337.703125 "
			      fill-opacity="1"
			      fill-rule="nonzero"/>
		</g>
	</g>
</svg>